<?xml version="1.0" encoding="UTF-8" standalone="no"?>
<!DOCTYPE svg PUBLIC "-//W3C//DTD SVG 1.1//EN" "http://www.w3.org/Graphics/SVG/1.1/DTD/svg11.dtd">
<svg width="100%" height="100%" viewBox="0 0 300 300" version="1.1" xmlns="http://www.w3.org/2000/svg" xmlns:xlink="http://www.w3.org/1999/xlink" xml:space="preserve" xmlns:serif="http://www.serif.com/" style="fill-rule:evenodd;clip-rule:evenodd;stroke-linejoin:round;stroke-miterlimit:2;">
    <g transform="matrix(1.82432,0,0,1.82432,-67.0946,-21.4865)">
        <circle cx="119" cy="94" r="74" style="fill:rgb(247,198,74);"/>
        <clipPath id="_clip1">
            <circle cx="119" cy="94" r="74"/>
        </clipPath>
        <g clip-path="url(#_clip1)">
            <g transform="matrix(0.0809613,0.0761483,-0.385135,0.409477,110.494,32.2459)">
                <rect x="-46" y="22" width="95" height="205" style="fill:rgb(246,189,46);"/>
            </g>
            <g transform="matrix(0.0809613,0.0761483,-0.421102,0.447718,223.953,44.8851)">
                <rect x="-46" y="22" width="95" height="205" style="fill:rgb(246,189,46);"/>
            </g>
        </g>
    </g>
    <g transform="matrix(9.30884e-17,1.52025,-1.52025,9.30884e-17,320.59,-48.3926)">
        <path d="M125.359,80.904C126.42,79.067 128.379,77.936 130.5,77.936C132.621,77.936 134.58,79.067 135.641,80.904C143.194,93.987 157.21,118.263 164.763,131.346C165.824,133.183 165.824,135.445 164.763,137.282C163.703,139.119 161.743,140.25 159.623,140.25L101.377,140.25C99.257,140.25 97.297,139.119 96.237,137.282C95.176,135.445 95.176,133.183 96.237,131.346C103.79,118.263 117.806,93.987 125.359,80.904Z" style="fill:white;"/>
    </g>
</svg>
