<?xml version="1.0" encoding="UTF-8" standalone="no"?>
<!DOCTYPE svg PUBLIC "-//W3C//DTD SVG 1.1//EN" "http://www.w3.org/Graphics/SVG/1.1/DTD/svg11.dtd">
<svg width="100%" height="100%" viewBox="0 0 300 600" version="1.1" xmlns="http://www.w3.org/2000/svg" xmlns:xlink="http://www.w3.org/1999/xlink" xml:space="preserve" xmlns:serif="http://www.serif.com/" style="fill-rule:evenodd;clip-rule:evenodd;stroke-linejoin:round;stroke-miterlimit:2;">
    <g transform="matrix(1.30435,0,0,1.30435,-45.6522,-45.6522)">
        <g transform="matrix(0.766667,0,0,0.766667,35,35)">
            <circle cx="150" cy="150" r="150" style="fill:rgb(247,198,74);"/>
        </g>
        <g transform="matrix(7.84309e-17,1.28087,-1.28087,7.84309e-17,387.469,-89.5233)">
            <path d="M187,150L219.043,205.5L154.957,205.5L187,150Z" style="fill:white;"/>
        </g>
    </g>
    <g transform="matrix(1.30435,0,0,1.30435,-45.6522,-136.956)">
        <g transform="matrix(0.766667,0,0,0.766667,35,335)">
            <circle cx="150" cy="150" r="150" style="fill:rgb(247,198,74);"/>
        </g>
        <g transform="matrix(1.17647,0,0,1.15544,1.08083,270.304)">
            <rect x="100" y="120" width="17" height="71.043" style="fill:white;"/>
        </g>
        <g transform="matrix(1.17647,0,0,1.15544,43.6251,270.304)">
            <rect x="100" y="120" width="17" height="71.043" style="fill:white;"/>
        </g>
    </g>
</svg>
