<?xml version="1.0" encoding="UTF-8" standalone="no"?>
<!DOCTYPE svg PUBLIC "-//W3C//DTD SVG 1.1//EN" "http://www.w3.org/Graphics/SVG/1.1/DTD/svg11.dtd">
<svg width="100%" height="100%" viewBox="0 0 300 300" version="1.1" xmlns="http://www.w3.org/2000/svg" xmlns:xlink="http://www.w3.org/1999/xlink" xml:space="preserve" xmlns:serif="http://www.serif.com/" style="fill-rule:evenodd;clip-rule:evenodd;stroke-linejoin:round;stroke-miterlimit:2;">
    <circle cx="150" cy="150" r="150" style="fill:rgb(255,212,212);"/>
    <g transform="matrix(0.899118,0,1.10825e-32,0.899118,15.1324,16.0907)">
        <path d="M174.455,234.944L127.646,234.944C118.903,234.767 111.045,227.693 110.341,218.98C110.292,218.361 110.298,218.204 110.286,217.583L98.206,132.076C98.218,131.455 201.782,130.404 201.795,131.025L191.815,217.583C191.803,218.204 191.809,218.361 191.76,218.98C191.089,227.282 183.78,234.582 175.154,234.929C174.921,234.939 174.688,234.939 174.455,234.944ZM132.423,95.001L132.423,90.055C132.423,86.742 135.11,84.056 138.423,84.056L161.577,84.056C164.891,84.056 167.577,86.742 167.577,90.055L167.577,95.001L204.924,95.001C206.514,95.001 208.042,95.632 209.166,96.758C210.292,97.884 210.924,99.41 210.924,101.001L210.924,112.891C210.924,114.482 210.292,116.008 209.166,117.134C208.042,118.26 206.514,118.892 204.924,118.892L95.077,118.892C93.485,118.892 91.959,118.26 90.835,117.134C89.709,116.008 89.077,114.482 89.077,112.891L89.077,101.001C89.077,99.41 89.709,97.884 90.835,96.758C91.959,95.632 93.485,95.001 95.077,95.001L132.423,95.001Z" style="fill:rgb(235,102,102);"/>
    </g>
</svg>
